<?xml version="1.0" encoding="utf-8"?>
<!-- Generator: Adobe Illustrator 19.0.0, SVG Export Plug-In . SVG Version: 6.00 Build 0)  -->
<svg version="1.1" id="Camada_1" xmlns="http://www.w3.org/2000/svg" xmlns:xlink="http://www.w3.org/1999/xlink" x="0px" y="0px"
	 viewBox="0 0 551.7 182.8" style="enable-background:new 0 0 551.7 182.8;" xml:space="preserve">
<style type="text/css">
	.st0{fill:#030104;}
	.st1{font-family:'Roboto-Medium';}
	.st2{font-size:54.1639px;}
	.st3{font-family:'Roboto-Black';}
	.st4{font-size:96.7212px;}
</style>
<g id="XMLID_19_">
	<path id="XMLID_17_" class="st0" d="M123.8,67.6h-5.6V46c0-25.8-18.6-46-45.2-46C46.4,0,28.2,20.6,28.2,46v21.4l0,0h-5.6
		C10.2,67.4,0.2,77.4,0,90v67.6C0,170,10,180,22.6,180.2h101.2c12.4,0,22.4-10,22.6-22.6V90C146.4,77.6,136.2,67.6,123.8,67.6
		L123.8,67.6z M39.4,67.6V46c0-19.2,13.2-34.8,33.6-34.8c20.2,0,34,15.2,34,34.8v21.4l0,0l-67.6,0L39.4,67.6L39.4,67.6z M84.4,112.6
		c0,4.2-2.2,7.8-5.6,9.8h-0.2h0.2v18.4c0,3.2-2.6,5.6-5.6,5.6c-3.2,0-5.6-2.6-5.6-5.6v-18.4h0.2h-0.2c-3.4-2-5.6-5.6-5.6-9.8
		c0-6.2,5-11.2,11.2-11.2C79.4,101.2,84.4,106.2,84.4,112.6L84.4,112.6z"/>
	<text id="XMLID_22_" transform="matrix(1 0 0 1 177.6751 63.7205)"><tspan x="0" y="0" class="st1 st2">COMPRA 100%</tspan><tspan x="0" y="92.9" class="st3 st4">SEGURA</tspan></text>
</g>
</svg>
