<?xml version="1.0" encoding="utf-8"?>
<!-- Generator: Adobe Illustrator 19.0.0, SVG Export Plug-In . SVG Version: 6.00 Build 0)  -->
<svg version="1.1" id="Camada_1" xmlns="http://www.w3.org/2000/svg" xmlns:xlink="http://www.w3.org/1999/xlink" x="0px" y="0px"
	 viewBox="-29 305.2 551.7 182.8" style="enable-background:new -29 305.2 551.7 182.8;" xml:space="preserve">
<style type="text/css">
	.st0{opacity:0.9;fill:#FFFFFF;}
	.st1{opacity:0.95;enable-background:new    ;}
	.st2{fill:#FFFFFF;}
	.st3{enable-background:new    ;}
</style>
<g id="XMLID_19_">
	<path id="XMLID_17_" class="st0" d="M94.8,372.8h-5.6v-21.6c0-25.8-18.6-46-45.2-46s-44.8,20.6-44.8,46v21.4l0,0h-5.6
		c-12.4,0-22.4,10-22.6,22.6v67.6c0,12.4,10,22.4,22.6,22.6H94.8c12.4,0,22.4-10,22.6-22.6v-67.6
		C117.4,382.8,107.2,372.8,94.8,372.8L94.8,372.8z M10.4,372.8v-21.6c0-19.2,13.2-34.8,33.6-34.8c20.2,0,34,15.2,34,34.8v21.4l0,0
		H10.4V372.8L10.4,372.8z M55.4,417.8c0,4.2-2.2,7.8-5.6,9.8h-0.2h0.2V446c0,3.2-2.6,5.6-5.6,5.6c-3.2,0-5.6-2.6-5.6-5.6v-18.4h0.2
		h-0.2c-3.4-2-5.6-5.6-5.6-9.8c0-6.2,5-11.2,11.2-11.2C50.4,406.4,55.4,411.4,55.4,417.8L55.4,417.8z"/>
	<g class="st1">
		<path class="st2" d="M182,356.4c-0.4,4.1-1.9,7.3-4.5,9.6c-2.6,2.3-6.2,3.5-10.6,3.5c-3.1,0-5.8-0.7-8.1-2.2
			c-2.3-1.5-4.1-3.5-5.4-6.2c-1.3-2.7-1.9-5.8-2-9.3v-3.6c0-3.6,0.6-6.8,1.9-9.6c1.3-2.8,3.1-4.9,5.5-6.4c2.4-1.5,5.2-2.2,8.3-2.2
			c4.2,0,7.7,1.2,10.3,3.5s4.1,5.6,4.5,9.8h-6.7c-0.3-2.8-1.1-4.8-2.4-6s-3.2-1.8-5.7-1.8c-2.9,0-5.1,1.1-6.7,3.2
			c-1.6,2.1-2.4,5.2-2.4,9.4v3.4c0,4.2,0.7,7.3,2.2,9.5c1.5,2.2,3.7,3.3,6.5,3.3c2.6,0,4.6-0.6,5.9-1.8c1.3-1.2,2.2-3.1,2.5-5.9H182
			z"/>
		<path class="st2" d="M218.7,350.7c0,3.8-0.7,7.1-2,9.9c-1.3,2.8-3.2,5-5.6,6.6c-2.4,1.5-5.2,2.3-8.4,2.3c-3.1,0-5.9-0.8-8.3-2.3
			c-2.4-1.5-4.3-3.7-5.7-6.5c-1.3-2.8-2-6.1-2-9.8v-2.2c0-3.8,0.7-7.1,2-9.9c1.3-2.9,3.2-5.1,5.6-6.6c2.4-1.5,5.2-2.3,8.3-2.3
			c3.1,0,5.9,0.8,8.3,2.3c2.4,1.5,4.3,3.7,5.6,6.5c1.3,2.8,2,6.1,2,9.9V350.7z M212,348.7c0-4.3-0.8-7.5-2.4-9.8s-3.9-3.4-6.9-3.4
			c-2.9,0-5.2,1.1-6.8,3.4c-1.6,2.3-2.5,5.5-2.5,9.6v2.2c0,4.2,0.8,7.5,2.5,9.8c1.6,2.3,3.9,3.5,6.9,3.5c3,0,5.2-1.1,6.8-3.4
			s2.4-5.6,2.4-9.9V348.7z"/>
		<path class="st2" d="M234,330.4l11.1,29.5l11.1-29.5h8.6v38.5h-6.7v-12.7l0.7-17l-11.4,29.7h-4.8l-11.3-29.6l0.7,17v12.7h-6.7
			v-38.5H234z"/>
		<path class="st2" d="M279.5,354.6v14.3h-6.7v-38.5h14.7c4.3,0,7.7,1.1,10.2,3.4c2.5,2.2,3.8,5.2,3.8,8.9c0,3.8-1.2,6.7-3.7,8.8
			c-2.5,2.1-5.9,3.2-10.4,3.2H279.5z M279.5,349.2h8c2.4,0,4.2-0.6,5.4-1.7c1.3-1.1,1.9-2.7,1.9-4.9c0-2.1-0.6-3.7-1.9-5
			s-3-1.9-5.2-1.9h-8.2V349.2z"/>
		<path class="st2" d="M321.5,354.1h-7.5v14.8h-6.7v-38.5h13.5c4.4,0,7.9,1,10.3,3c2.4,2,3.6,4.9,3.6,8.7c0,2.6-0.6,4.7-1.9,6.5
			s-3,3.1-5.2,4l8.6,16v0.3h-7.2L321.5,354.1z M314.1,348.7h6.9c2.3,0,4-0.6,5.3-1.7c1.3-1.1,1.9-2.7,1.9-4.7c0-2.1-0.6-3.7-1.8-4.8
			s-2.9-1.7-5.3-1.7h-7.1V348.7z"/>
		<path class="st2" d="M362.7,360h-14.9l-3.1,9h-7l14.5-38.5h6l14.6,38.5h-7L362.7,360z M349.7,354.6h11.2l-5.6-16L349.7,354.6z"/>
		<path class="st2" d="M407.1,368.9h-6.4V338l-9.4,3.2v-5.4l15-5.5h0.8V368.9z"/>
		<path class="st2" d="M445.6,352.7c0,5.5-1,9.7-3.1,12.5c-2.1,2.8-5.2,4.2-9.5,4.2c-4.2,0-7.3-1.4-9.4-4.1
			c-2.1-2.7-3.2-6.8-3.2-12.2v-6.7c0-5.5,1-9.7,3.1-12.5c2.1-2.8,5.2-4.2,9.5-4.2c4.2,0,7.4,1.3,9.4,4c2.1,2.7,3.1,6.7,3.2,12.1
			V352.7z M439.1,345.5c0-3.6-0.5-6.3-1.5-7.9c-1-1.7-2.6-2.5-4.7-2.5c-2.1,0-3.6,0.8-4.6,2.4c-1,1.6-1.5,4.1-1.6,7.5v8.7
			c0,3.6,0.5,6.3,1.5,8c1,1.8,2.6,2.6,4.7,2.6c2.1,0,3.6-0.8,4.6-2.4s1.5-4.2,1.6-7.7V345.5z"/>
		<path class="st2" d="M476.4,352.7c0,5.5-1,9.7-3.1,12.5c-2.1,2.8-5.2,4.2-9.5,4.2c-4.2,0-7.3-1.4-9.4-4.1
			c-2.1-2.7-3.2-6.8-3.2-12.2v-6.7c0-5.5,1-9.7,3.1-12.5c2.1-2.8,5.2-4.2,9.5-4.2c4.2,0,7.4,1.3,9.4,4c2.1,2.7,3.1,6.7,3.2,12.1
			V352.7z M469.9,345.5c0-3.6-0.5-6.3-1.5-7.9c-1-1.7-2.6-2.5-4.7-2.5c-2.1,0-3.6,0.8-4.6,2.4c-1,1.6-1.5,4.1-1.6,7.5v8.7
			c0,3.6,0.5,6.3,1.5,8c1,1.8,2.6,2.6,4.7,2.6c2.1,0,3.6-0.8,4.6-2.4c1-1.6,1.5-4.2,1.6-7.7V345.5z"/>
		<path class="st2" d="M481.8,337.8c0-2.3,0.7-4.2,2.2-5.7c1.5-1.5,3.5-2.2,5.9-2.2c2.5,0,4.4,0.7,5.9,2.2c1.5,1.5,2.2,3.4,2.2,5.9
			v1.9c0,2.3-0.7,4.2-2.2,5.7c-1.5,1.5-3.5,2.2-5.9,2.2c-2.4,0-4.3-0.7-5.9-2.2c-1.5-1.5-2.3-3.4-2.3-5.9V337.8z M486.3,339.8
			c0,1.2,0.3,2.2,1,3c0.7,0.8,1.6,1.1,2.7,1.1c1.1,0,2-0.4,2.6-1.1c0.7-0.8,1-1.8,1-3.1v-1.9c0-1.2-0.3-2.2-1-3
			c-0.7-0.8-1.6-1.1-2.7-1.1c-1.1,0-2,0.4-2.7,1.2s-1,1.8-1,3V339.8z M491.3,366l-3.3-1.9l18.8-30.1l3.3,1.9L491.3,366z
			 M500.3,359.5c0-2.4,0.8-4.3,2.3-5.7c1.5-1.5,3.5-2.2,5.9-2.2c2.4,0,4.4,0.7,5.9,2.2c1.5,1.5,2.3,3.4,2.3,5.9v1.9
			c0,2.3-0.7,4.2-2.2,5.7c-1.5,1.5-3.4,2.2-5.9,2.2c-2.5,0-4.5-0.7-6-2.2c-1.5-1.5-2.3-3.4-2.3-5.8V359.5z M504.8,361.5
			c0,1.2,0.3,2.2,1,2.9c0.7,0.8,1.6,1.2,2.7,1.2c1.1,0,2-0.4,2.7-1.1c0.6-0.7,1-1.8,1-3.1v-2c0-1.2-0.3-2.2-1-3
			c-0.7-0.7-1.6-1.1-2.6-1.1c-1.1,0-2,0.4-2.7,1.1c-0.7,0.7-1,1.8-1,3.1V361.5z"/>
	</g>
	<g class="st3">
		<path class="st2" d="M189.3,443.5c0-2.4-0.9-4.3-2.6-5.7c-1.7-1.4-4.7-2.8-9-4.2c-4.3-1.4-7.8-2.8-10.6-4.2
			c-8.9-4.4-13.4-10.4-13.4-18c0-3.8,1.1-7.2,3.3-10.1c2.2-2.9,5.4-5.2,9.4-6.8c4.1-1.6,8.6-2.4,13.7-2.4c4.9,0,9.4,0.9,13.3,2.6
			c3.9,1.8,7,4.3,9.1,7.5c2.2,3.3,3.3,7,3.3,11.2h-16.5c0-2.8-0.9-5-2.6-6.5c-1.7-1.5-4-2.3-7-2.3c-3,0-5.3,0.7-7,2
			c-1.7,1.3-2.6,3-2.6,5c0,1.8,0.9,3.4,2.8,4.8s5.2,2.9,10,4.4c4.8,1.5,8.7,3.2,11.7,4.9c7.4,4.3,11.1,10.2,11.1,17.7
			c0,6-2.3,10.7-6.8,14.2s-10.8,5.1-18.7,5.1c-5.6,0-10.6-1-15.1-3c-4.5-2-7.9-4.7-10.2-8.2s-3.4-7.5-3.4-12h16.6
			c0,3.7,1,6.4,2.9,8.1c1.9,1.7,5,2.6,9.3,2.6c2.7,0,4.9-0.6,6.5-1.8C188.5,447.3,189.3,445.7,189.3,443.5z"/>
		<path class="st2" d="M257.1,432.6H231v16.4h30.8v12.8h-47.4v-68.8h47.5v12.8H231v14.5h26.1V432.6z"/>
		<path class="st2" d="M324.8,453.3c-2.5,2.8-6.3,5.1-11.2,6.8c-4.9,1.7-10.3,2.6-16.2,2.6c-9,0-16.2-2.8-21.6-8.3
			c-5.4-5.5-8.3-13.2-8.6-23l0-6c0-6.8,1.2-12.7,3.6-17.7c2.4-5.1,5.8-8.9,10.3-11.7c4.5-2.7,9.6-4.1,15.5-4.1c8.6,0,15.2,2,20,5.9
			c4.7,3.9,7.5,9.8,8.3,17.5h-16c-0.6-3.8-1.8-6.6-3.7-8.2c-1.9-1.6-4.6-2.5-8-2.5c-4.2,0-7.4,1.8-9.6,5.3
			c-2.3,3.5-3.4,8.6-3.4,15.1v4.2c0,6.9,1.2,12,3.5,15.5c2.3,3.4,6,5.2,11.1,5.2c4.3,0,7.5-1,9.6-2.9v-10.7h-11.5v-11.4h28.1V453.3z
			"/>
		<path class="st2" d="M388.4,393.1v45c0,5.1-1.1,9.5-3.3,13.2c-2.2,3.7-5.3,6.6-9.4,8.5s-8.9,2.9-14.4,2.9c-8.4,0-15-2.2-19.8-6.5
			c-4.8-4.3-7.3-10.3-7.4-17.9v-45.3h16.7v45.7c0.2,7.5,3.7,11.3,10.5,11.3c3.4,0,6-0.9,7.8-2.8c1.8-1.9,2.6-5,2.6-9.2v-44.9H388.4z
			"/>
		<path class="st2" d="M424.3,437.5h-9v24.3h-16.6v-68.8h27.1c8.2,0,14.5,1.8,19.1,5.4c4.6,3.6,6.9,8.7,6.9,15.3
			c0,4.8-1,8.7-2.9,11.9c-1.9,3.1-5,5.7-9.1,7.6l14.4,27.8v0.7h-17.8L424.3,437.5z M415.3,424.7h10.5c3.1,0,5.5-0.8,7.1-2.5
			s2.4-4,2.4-6.9s-0.8-5.3-2.4-7c-1.6-1.7-4-2.5-7.1-2.5h-10.5V424.7z"/>
		<path class="st2" d="M500.9,449h-22.7l-4,12.8h-17.7l25.2-68.8h15.6l25.4,68.8h-17.8L500.9,449z M482.1,436.2h14.8l-7.4-23.8
			L482.1,436.2z"/>
	</g>
</g>
</svg>
