<?xml version="1.0" encoding="utf-8"?>
<!-- Generator: Adobe Illustrator 19.0.0, SVG Export Plug-In . SVG Version: 6.00 Build 0)  -->
<svg version="1.1" id="Camada_1" xmlns="http://www.w3.org/2000/svg" xmlns:xlink="http://www.w3.org/1999/xlink" x="0px" y="0px"
	 viewBox="-360.4 375.6 61.9 42.9" style="enable-background:new -360.4 375.6 61.9 42.9;" xml:space="preserve">
<g>
	<path d="M-329.4,375.6c-17.1,0-31,9.1-31,20.3c0,0.3,0,1.1,0,1.2c0,11.8,12.1,21.4,31,21.4c19,0,31-9.6,31-21.4c0-0.4,0-0.7,0-1.2
		C-298.4,384.7-312.3,375.6-329.4,375.6z M-329.4,414.9c-16.4,0-29.8-8.5-29.8-19c0-0.4,0-0.8,0.1-1.3c0,0,0,0,0,0
		c0-0.4,0.1-0.9,0.2-1.3c0,0,0,0,0,0c0.2-0.9,0.5-1.7,0.8-2.5c0,0,0,0,0,0c0.4-0.9,0.9-1.8,1.5-2.6c0,0,0,0,0,0
		c0.6-0.8,1.3-1.7,2-2.4c0,0,0,0,0,0c0.6-0.6,1.2-1.2,1.9-1.7c0,0,0,0,0,0c0.3-0.3,0.7-0.5,1.1-0.8c0,0,0,0,0,0
		c5.5-3.9,13.3-6.3,22.1-6.3c9.1,0,17.2,2.6,22.7,6.7c0,0,0,0,0,0c0.4,0.3,0.7,0.5,1,0.8c0,0,0,0,0,0c0.7,0.6,1.4,1.2,2,1.9
		c0,0,0,0,0.1,0.1c0.3,0.4,0.6,0.7,0.9,1.1c0,0,0,0,0,0c0.3,0.4,0.6,0.8,0.8,1.2c0,0,0,0,0,0.1c0.2,0.4,0.4,0.7,0.6,1.1
		c0,0.1,0.1,0.1,0.1,0.2c0.2,0.4,0.4,0.8,0.6,1.2c0,0,0,0,0,0c0.2,0.4,0.3,0.8,0.4,1.2c0,0.1,0,0.2,0.1,0.3c0.1,0.3,0.2,0.7,0.2,1
		c0,0,0,0,0,0c0.1,0.4,0.1,0.9,0.2,1.3c0,0,0,0,0,0c0,0.3,0,0.6,0,1C-299.6,406.3-312.9,414.9-329.4,414.9z"/>
	<path d="M-356.6,388.1c0.6-0.8,1.3-1.7,2-2.4C-355.3,386.4-356,387.2-356.6,388.1z"/>
	<path d="M-299.8,393.6c-0.1-0.3-0.1-0.7-0.2-1C-300,392.9-299.9,393.2-299.8,393.6C-299.8,393.6-299.8,393.6-299.8,393.6z"/>
	<path d="M-303.7,386.2c-0.6-0.7-1.3-1.3-2-1.9c0,0,0,0,0,0C-305,384.9-304.3,385.5-303.7,386.2z"/>
	<path d="M-301.1,389.9c0.2,0.4,0.4,0.8,0.6,1.2C-300.7,390.7-300.9,390.3-301.1,389.9z"/>
	<path d="M-300.5,391.1c0.2,0.4,0.3,0.8,0.4,1.2C-300.2,391.9-300.4,391.5-300.5,391.1z"/>
	<path d="M-302.7,387.4c0.3,0.4,0.6,0.8,0.8,1.2C-302.1,388.2-302.4,387.8-302.7,387.4z"/>
	<path d="M-301.8,388.6c0.2,0.4,0.4,0.7,0.6,1.1C-301.4,389.4-301.6,389-301.8,388.6z"/>
	<path d="M-352.6,383.9c-0.7,0.6-1.3,1.1-1.9,1.7C-353.9,385-353.3,384.4-352.6,383.9C-352.6,383.9-352.6,383.9-352.6,383.9z"/>
	<path d="M-303.6,386.2c0.3,0.4,0.6,0.7,0.9,1.1C-303,387-303.3,386.6-303.6,386.2z"/>
	<path d="M-358.1,390.7c0.4-0.9,0.9-1.8,1.5-2.6C-357.2,388.9-357.7,389.8-358.1,390.7z"/>
	<path d="M-358.1,390.7c-0.4,0.8-0.6,1.7-0.8,2.5c0,0,0,0,0,0C-358.7,392.4-358.4,391.5-358.1,390.7z"/>
	<path d="M-301.2,389.7c0,0.1,0.1,0.1,0.1,0.2C-301.1,389.8-301.1,389.8-301.2,389.7z"/>
	<path d="M-300.1,392.3c0,0.1,0,0.2,0.1,0.3C-300.1,392.5-300.1,392.4-300.1,392.3z"/>
	<path d="M-302.7,387.3C-302.7,387.4-302.7,387.4-302.7,387.3C-302.7,387.4-302.7,387.4-302.7,387.3z"/>
	<path d="M-301.8,388.6C-301.8,388.6-301.8,388.6-301.8,388.6C-301.8,388.6-301.8,388.6-301.8,388.6z"/>
	<path d="M-303.7,386.2C-303.7,386.2-303.7,386.2-303.7,386.2C-303.7,386.2-303.7,386.2-303.7,386.2z"/>
	<path d="M-300.5,391.1C-300.5,391.1-300.5,391.1-300.5,391.1C-300.5,391.1-300.5,391.1-300.5,391.1z"/>
	<path d="M-358.1,390.7C-358.1,390.7-358.1,390.7-358.1,390.7C-358.1,390.7-358.1,390.7-358.1,390.7z"/>
	<path d="M-356.6,388.1C-356.6,388.1-356.6,388.1-356.6,388.1C-356.6,388.1-356.6,388.1-356.6,388.1z"/>
	<path d="M-354.5,385.6C-354.5,385.6-354.5,385.6-354.5,385.6C-354.5,385.6-354.5,385.6-354.5,385.6z"/>
	<path d="M-306,384C-306,384-306,384.1-306,384c0.1,0.1,0.2,0.2,0.3,0.3c0,0,0,0,0,0c-0.3-0.3-0.7-0.6-1-0.8c0,0,0,0,0,0
		C-306.5,383.6-306.2,383.8-306,384C-306,384-306,384-306,384z"/>
	<path d="M-358.9,393.5C-358.9,393.5-358.9,393.5-358.9,393.5c0-0.1,0-0.2,0.1-0.2c0,0,0,0,0,0c-0.1,0.4-0.2,0.9-0.2,1.3
		c0,0,0,0,0,0C-359,394.2-359,393.9-358.9,393.5C-358.9,393.5-358.9,393.5-358.9,393.5z"/>
	<path d="M-351.5,383.1c-0.4,0.3-0.7,0.5-1.1,0.8c0,0,0,0,0,0C-352.2,383.6-351.9,383.3-351.5,383.1
		C-351.5,383.1-351.5,383.1-351.5,383.1z"/>
	<path d="M-299.8,393.8C-299.8,393.8-299.8,393.8-299.8,393.8c0.1,0.3,0.1,0.7,0.1,1c0,0,0,0,0,0c0-0.4-0.1-0.9-0.2-1.3c0,0,0,0,0,0
		C-299.8,393.6-299.8,393.7-299.8,393.8C-299.8,393.8-299.8,393.8-299.8,393.8z"/>
	<path d="M-299.8,393.8c0-0.1,0-0.2,0-0.2c0,0,0,0,0,0C-299.8,393.6-299.8,393.7-299.8,393.8z"/>
	<path d="M-305.7,384.3C-305.7,384.3-305.7,384.3-305.7,384.3c-0.1-0.1-0.2-0.2-0.3-0.2C-305.9,384.1-305.8,384.2-305.7,384.3z"/>
	<path d="M-358.9,393.3C-358.9,393.3-358.9,393.3-358.9,393.3c0,0.1,0,0.1-0.1,0.2C-358.9,393.4-358.9,393.3-358.9,393.3z"/>
	<path d="M-346.3,398.9c-0.2,0.4-0.2,0.8-0.2,1.2c0,1.7,1.3,3,3,3c0.2,0,0.4,0,0.6,0c0.3,1.2,1,2.1,2.3,2.6c0.4,0.1,0.7,0.2,1.1,0.2
		c0.2,0,0.5,0,0.7-0.1c0.2,0.6,0.7,1.3,1.9,1.7c0.4,0.2,0.8,0.2,1.2,0.2c0.3,0,0.6-0.1,0.9-0.2c0.5,1.3,1.8,2.2,3.3,2.2
		c1,0,1.9-0.4,2.5-1.1c0.6,0.3,1.8,0.9,3,0.9c0.2,0,0.3,0,0.5,0c1.2-0.2,1.8-0.6,2-1c0-0.1,0.1-0.1,0.1-0.2c0.3,0.1,0.6,0.1,1,0.1
		c0.7,0,1.3-0.2,1.9-0.7c0.6-0.5,1.1-1.1,1.1-1.7c0,0,0,0,0,0c0.2,0,0.4,0.1,0.6,0.1c0.7,0,1.4-0.2,2-0.6c1.2-0.8,1.5-1.9,1.4-2.6
		c0.2,0,0.4,0.1,0.7,0.1c0.6,0,1.3-0.2,1.9-0.6c0.8-0.5,1.2-1.2,1.3-2.1c0-0.6-0.1-1.2-0.4-1.7c2.1-0.9,6.8-2.6,12.4-3.9
		c0-0.3-0.1-0.7-0.1-1c-6.9,1.5-12,3.7-13.1,4.2c-1.4-1.2-9.6-8.4-11.6-9.9c-1.1-0.8-1.8-1.2-2.3-1.4c-0.5-0.2-1.3-0.3-2.6,0.1
		c-1.2,0.4-2.3,1.3-3.5,2.2c-1.1,0.9-2.2,1.8-3.1,1.9c-1.5,0.3-2.9,0-3.4-0.6c-0.2-0.2,0.1-0.6,0.1-0.6l2.6-2.8c2.1-2.1,4-4,8.5-4.1
		c3-0.1,6.1,1.4,6.1,1.4c5.6,2.8,11.4,1.7,16.1-0.3c-0.2-0.2-0.5-0.4-0.7-0.6c-2.6,1.1-5.2,1.7-7.6,1.7c-2.5,0-5-0.6-7.4-1.8
		c-0.1-0.1-3.2-1.5-6.3-1.5c-0.1,0-0.2,0-0.2,0c-3.7,0.1-5.8,1.4-7.2,2.5c-1.4,0-2.5,0.4-3.6,0.7c-0.9,0.3-1.7,0.5-2.5,0.5
		c-0.3,0-0.9,0-1,0c-0.9,0-5.4-1.1-9-2.5c-0.4,0.3-0.7,0.5-1.1,0.8c0,0,0,0,0,0c0.2-0.2,0.4-0.3,0.6-0.5c3.1,1.5,5.2,2.1,7.6,2.7
		c0.4,0.1,2.5,0.4,2.9,0.4c0.9,0,1.8-0.3,2.8-0.5c0.8-0.2,1.5-0.4,2.4-0.5c-0.3,0.3-0.6,0.6-0.9,0.9l-2.6,2.8
		c-0.1,0.1-0.6,0.6-0.3,1.2c0.1,0.2,0.3,0.5,0.6,0.7c0.8,0.5,2.4,0.9,3.8,0.6c1.1-0.2,2.2-1.1,3.4-2.1c1.2-0.9,2.5-1.8,3.5-2.1
		c0.4-0.1,0.9-0.2,1.3-0.1c0.7,0.1,1.4,0.3,2.7,1.3c2.2,1.6,11.7,10,11.8,10.1h0c0,0,0.7,0.6,0.6,1.6c0,0.6-0.3,1-0.8,1.4
		c-1.4,0.9-2.5,0.1-2.6,0.1c0,0-3.3-3-4.5-4c-0.2-0.1-0.4-0.4-0.5-0.2c-0.1,0.2,0.3,0.5,0.3,0.5l3.8,3.8c0,0,0.5,0.5,0.6,1.2
		c0,0.5-0.1,1.2-1,1.7c-1.4,0.9-2.4,0.3-2.7,0.1c-1.2-1.2-2.4-2.4-3.3-3.2c-0.2-0.1-0.4-0.3-0.6-0.2c-0.1,0.1,0.3,0.5,0.3,0.5
		l2.8,3.1c0,0,0.7,0.8,0.1,1.6c0,0,0,0,0,0c-0.1,0.2-0.3,0.3-0.4,0.4c-0.6,0.5-1.4,0.5-1.9,0.4c-0.5-0.1-0.6-0.3-0.7-0.3
		c0,0-1.5-1.5-2.7-2.5c-0.2-0.1-0.4-0.4-0.5-0.2c-0.1,0.1,0.3,0.5,0.3,0.5l2.4,2.7c0.1,0.1,0,0.2-0.1,0.4c-0.1,0.2-0.5,0.5-1.4,0.6
		c-1.1,0.1-2.4-0.5-2.9-0.8c0.3-0.5,0.4-1,0.4-1.6c0-1.9-1.5-3.4-3.4-3.4c-0.1,0-0.2,0-0.3,0c0.1-1.2-0.1-2.7-1.7-3.4
		c-0.5-0.2-1-0.3-1.4-0.3c-0.5,0-0.9,0.1-1.2,0.3c-0.3-0.6-0.7-1.2-1.7-1.5c-0.4-0.1-0.8-0.2-1.2-0.2c-0.9,0-1.5,0.3-2,0.7
		c-0.5-0.7-1.4-1.2-2.3-1.2c-0.8,0-1.6,0.4-2.1,0.9c-0.5-0.4-3.1-2.3-11.6-4.2c-0.4-0.1-1.2-0.3-1.8-0.5c-0.1,0.3-0.1,0.7-0.2,1
		c0.1,0,1.4,0.3,1.7,0.4C-349.4,396.7-346.7,398.6-346.3,398.9z M-343.5,398c1.1,0,1.9,0.8,2.1,1.8c0.3-0.5,1.4-1.7,3.2-1.2
		c1.3,0.4,1.4,1.5,1.5,1.9c0,0.1,0,0.1,0.1,0c0.3-0.3,1.2-1,2.6-0.4c1.9,0.8,1.1,3.2,1.1,3.3c-0.1,0.1-0.1,0.4-0.1,0.4
		c0.1,0.1,0.7-0.3,1.3-0.3c1.4,0,2.6,1.2,2.6,2.6c0,1.4-1.2,2.6-2.6,2.6c-1.4,0-2.6-1.1-2.6-2.5c0-0.3-0.1-0.3-0.2-0.1
		c-0.4,0.4-1.1,0.8-2.2,0.4c-1.4-0.6-1.5-1.6-1.5-2.1c0-0.2,0-0.2-0.2-0.1c-0.6,0.4-1.2,0.6-2,0.3c-2-0.8-1.8-2.6-1.7-3.1
		c0,0,0-0.1,0-0.1c-0.4,0.4-0.9,0.6-1.4,0.6c-1.1,0-2.1-0.9-2.1-2.1C-345.6,398.9-344.6,398-343.5,398z"/>
	<polygon points="-299.8,393.8 -299.8,393.8 -299.8,393.8 	"/>
	<path d="M-306,384C-306,384-306,384-306,384C-306,384-306,384.1-306,384C-306,384.1-306,384-306,384z"/>
	<path d="M-299.8,393.6c-6.7,1.5-11.7,3.7-13,4.2h0c-2.9-2.6-9.7-8.5-11.6-9.8c-1.1-0.8-1.8-1.2-2.4-1.4c-0.3-0.1-0.7-0.2-1.2-0.2
		c-0.5,0-1,0.1-1.5,0.3c-1.2,0.4-2.4,1.3-3.5,2.2l-0.1,0c-1.1,0.8-2.2,1.7-3,1.9c-0.4,0.1-0.7,0.1-1.1,0.1c-0.9,0-1.8-0.3-2.1-0.7
		c-0.1-0.1,0-0.2,0.1-0.3l0,0l2.6-2.8c2-2,3.9-3.9,8.3-4c0.1,0,0.1,0,0.2,0c2.7,0,5.5,1.2,5.8,1.4c2.6,1.3,5.2,1.9,7.9,1.9
		c2.8,0,5.6-0.7,8.6-2.1c-0.1-0.1-0.2-0.2-0.3-0.2c0,0,0,0,0,0c-4.7,2-10.5,3-16.1,0.3c0,0-3.1-1.5-6.1-1.4c-4.5,0.1-6.4,2-8.5,4.1
		l-2.6,2.8c0,0-0.3,0.3-0.1,0.6c0.5,0.6,1.9,0.9,3.4,0.6c0.9-0.2,2-1.1,3.1-1.9c1.2-0.9,2.3-1.9,3.5-2.2c1.2-0.4,2-0.2,2.6-0.1
		c0.6,0.2,1.3,0.6,2.3,1.4c2,1.5,10.2,8.7,11.6,9.9c1.1-0.5,6.2-2.7,13.1-4.2c0,0,0,0,0,0C-299.8,393.7-299.8,393.6-299.8,393.6z"/>
	<path d="M-358.9,393.5C-358.9,393.5-358.9,393.5-358.9,393.5C-358.9,393.5-358.9,393.5-358.9,393.5
		C-358.9,393.5-358.9,393.5-358.9,393.5z"/>
	<path d="M-341.5,386.8c1,0,1.9-0.3,2.8-0.5c0.5-0.2,1.2-0.3,1.8-0.4c-0.2,0.2-0.3,0.3-0.5,0.5l-2.6,2.8c-0.2,0.2-0.7,0.8-0.4,1.5
		c0.1,0.3,0.4,0.5,0.7,0.8c0.6,0.4,1.7,0.7,2.8,0.7c0.4,0,0.8,0,1.1-0.1c1.1-0.2,2.3-1.2,3.5-2.1c1-0.8,2.4-1.8,3.4-2
		c0.3-0.1,0.7-0.1,1-0.1c0.1,0,0.2,0,0.2,0c0.7,0.1,1.4,0.3,2.6,1.2c2.2,1.6,11.7,10,11.8,10c0,0,0.6,0.5,0.6,1.4
		c0,0.5-0.3,0.9-0.8,1.2c-0.4,0.3-0.8,0.4-1.3,0.4c-0.6,0-1.1-0.3-1.1-0.3c0,0-3.3-3-4.5-4c-0.2-0.2-0.4-0.3-0.6-0.3
		c-0.1,0-0.2,0-0.3,0.1c-0.2,0.2,0,0.6,0.3,0.8l3.8,3.8c0,0,0.5,0.4,0.5,1c0,0.6-0.3,1.2-0.9,1.6c-0.4,0.3-0.9,0.4-1.4,0.4
		c-0.6,0-1-0.3-1.1-0.3l-0.5-0.5c-1-1-2-2-2.8-2.6c-0.2-0.2-0.4-0.3-0.6-0.3c-0.1,0-0.2,0-0.2,0.1c-0.1,0.1-0.1,0.3,0.1,0.6
		c0.1,0.1,0.2,0.2,0.2,0.2l2.8,3.1c0,0,0.6,0.7,0.1,1.3l-0.1,0.1c-0.1,0.1-0.2,0.2-0.3,0.3c-0.5,0.4-1.1,0.4-1.4,0.4
		c-0.1,0-0.3,0-0.4,0c-0.3,0-0.5-0.1-0.5-0.2l0,0c-0.2-0.2-1.6-1.6-2.7-2.6c-0.2-0.1-0.3-0.3-0.5-0.3c-0.1,0-0.2,0-0.3,0.1
		c-0.2,0.3,0.1,0.6,0.3,0.8l2.4,2.6c0,0,0,0.1-0.1,0.2c-0.1,0.1-0.4,0.4-1.2,0.5c-0.1,0-0.2,0-0.3,0c-0.9,0-1.8-0.4-2.3-0.7
		c0.2-0.5,0.3-1,0.3-1.5c0-2-1.6-3.5-3.5-3.5c0,0-0.1,0-0.1,0c0.1-0.9-0.1-2.6-1.8-3.3c-0.5-0.2-1-0.3-1.5-0.3
		c-0.4,0-0.7,0.1-1.1,0.2c-0.4-0.7-1-1.2-1.7-1.5c-0.4-0.1-0.9-0.2-1.3-0.2c-0.7,0-1.4,0.2-2,0.6c-0.6-0.7-1.4-1.1-2.3-1.1
		c-0.8,0-1.6,0.3-2.1,0.9c-0.7-0.6-3.7-2.4-11.5-4.2c-0.4-0.1-1.2-0.3-1.7-0.5c0,0.1,0,0.1-0.1,0.2c0,0,0,0,0,0
		c0.5,0.1,1.4,0.4,1.8,0.5c8.5,1.9,11.1,3.8,11.6,4.2c0.5-0.6,1.3-0.9,2.1-0.9c0.9,0,1.8,0.5,2.3,1.2c0.5-0.4,1.2-0.7,2-0.7
		c0.4,0,0.8,0.1,1.2,0.2c1,0.3,1.4,1,1.7,1.5c0.3-0.1,0.7-0.3,1.2-0.3c0.5,0,0.9,0.1,1.4,0.3c1.6,0.7,1.8,2.2,1.7,3.4
		c0.1,0,0.2,0,0.3,0c1.9,0,3.4,1.5,3.4,3.4c0,0.6-0.1,1.1-0.4,1.6c0.5,0.3,1.8,0.9,2.9,0.8c0.9-0.1,1.2-0.4,1.4-0.6
		c0.1-0.1,0.2-0.3,0.1-0.4l-2.4-2.7c0,0-0.4-0.4-0.3-0.5c0.1-0.1,0.4,0.1,0.5,0.2c1.2,1,2.7,2.5,2.7,2.5c0,0,0.1,0.2,0.7,0.3
		c0.5,0.1,1.3,0,1.9-0.4c0.1-0.1,0.3-0.3,0.4-0.4c0,0,0,0,0,0c0.6-0.8-0.1-1.6-0.1-1.6l-2.8-3.1c0,0-0.4-0.4-0.3-0.5
		c0.1-0.1,0.4,0.1,0.6,0.2c0.9,0.7,2.1,2,3.3,3.2c0.2,0.2,1.3,0.8,2.7-0.1c0.8-0.6,1-1.2,1-1.7c-0.1-0.7-0.6-1.2-0.6-1.2l-3.8-3.8
		c0,0-0.4-0.3-0.3-0.5c0.1-0.1,0.4,0.1,0.5,0.2c1.2,1,4.5,4,4.5,4c0,0,1.2,0.8,2.6-0.1c0.5-0.3,0.8-0.8,0.8-1.4c0-1-0.6-1.6-0.6-1.6
		h0c-0.1-0.1-9.6-8.4-11.8-10.1c-1.3-0.9-1.9-1.2-2.7-1.3c-0.4,0-0.9,0-1.3,0.1c-1,0.3-2.3,1.2-3.5,2.1c-1.2,1-2.3,1.9-3.4,2.1
		c-1.4,0.3-3-0.1-3.8-0.6c-0.3-0.2-0.5-0.4-0.6-0.7c-0.3-0.6,0.2-1.2,0.3-1.2l2.6-2.8c0.3-0.3,0.6-0.6,0.9-0.9
		c-0.8,0.1-1.6,0.3-2.4,0.5c-1,0.3-1.9,0.5-2.8,0.5c-0.4,0-2.5-0.3-2.9-0.4c-2.4-0.7-4.5-1.3-7.6-2.7c-0.2,0.2-0.4,0.3-0.6,0.5
		c3.8,1.5,8.3,2.7,9.8,2.8C-342.4,386.7-341.9,386.8-341.5,386.8z"/>
	<path d="M-343.5,402.2c0.6,0,1.1-0.2,1.4-0.6c0,0,0,0,0,0.1c-0.1,0.5-0.2,2.4,1.7,3.1c0.8,0.3,1.5,0.1,2-0.3
		c0.2-0.1,0.2-0.1,0.2,0.1c-0.1,0.5,0,1.5,1.5,2.1c1.1,0.4,1.7,0,2.2-0.4c0.2-0.2,0.2-0.1,0.2,0.1c0.1,1.4,1.2,2.5,2.6,2.5
		c1.4,0,2.6-1.2,2.6-2.6c0-1.4-1.2-2.6-2.6-2.6c-0.6,0-1.2,0.3-1.3,0.3c0,0,0-0.3,0.1-0.4c0.1-0.1,0.8-2.5-1.1-3.3
		c-1.5-0.6-2.3,0.1-2.6,0.4c-0.1,0.1-0.1,0.1-0.1,0c0-0.4-0.2-1.6-1.5-1.9c-1.8-0.5-2.9,0.7-3.2,1.2c-0.1-1-1-1.8-2.1-1.8
		c-1.1,0-2.1,0.9-2.1,2.1C-345.6,401.2-344.6,402.2-343.5,402.2z M-343.5,398.2c0.9,0,1.7,0.7,1.9,1.6l0.1,0.5l0.3-0.4
		c0-0.1,0.8-1.2,2.2-1.2c0.3,0,0.5,0,0.8,0.1c1.1,0.3,1.3,1.4,1.3,1.8c0,0.2,0.2,0.3,0.2,0.3c0.1,0,0.2-0.1,0.2-0.1
		c0.2-0.2,0.7-0.6,1.4-0.6c0.3,0,0.7,0.1,1,0.2c1.8,0.8,1,3,1,3c-0.2,0.4-0.2,0.5,0,0.6l0.1,0h0.1c0.1,0,0.2,0,0.3-0.1
		c0.2-0.1,0.6-0.2,0.9-0.2h0c1.3,0,2.4,1.1,2.4,2.4c0,1.3-1.1,2.4-2.4,2.4c-1.3,0-2.4-1-2.4-2.3c0-0.1,0-0.4-0.3-0.4
		c-0.1,0-0.2,0.1-0.3,0.2c-0.3,0.3-0.7,0.5-1.2,0.5c-0.2,0-0.5-0.1-0.8-0.2c-1.4-0.6-1.4-1.5-1.3-1.9c0-0.1,0-0.2,0-0.3l-0.1-0.1
		h-0.1c-0.1,0-0.1,0-0.2,0.1c-0.4,0.3-0.8,0.4-1.2,0.4c-0.2,0-0.4,0-0.7-0.1c-1.8-0.7-1.7-2.4-1.6-2.9c0-0.1,0-0.2-0.1-0.2l-0.1-0.1
		l-0.1,0.1c-0.4,0.3-0.8,0.5-1.3,0.5c-1,0-1.9-0.8-1.9-1.9C-345.4,399.1-344.5,398.2-343.5,398.2z"/>
</g>
</svg>
