<?xml version="1.0" encoding="utf-8"?>
<!-- Generator: Adobe Illustrator 19.0.0, SVG Export Plug-In . SVG Version: 6.00 Build 0)  -->
<svg version="1.1" id="Camada_1" xmlns="http://www.w3.org/2000/svg" xmlns:xlink="http://www.w3.org/1999/xlink" x="0px" y="0px"
	 viewBox="11 306.8 633.9 180.2" style="enable-background:new 11 306.8 633.9 180.2;" xml:space="preserve">
<style type="text/css">
	.st0{opacity:0.9;}
	.st1{fill:#FFFFFF;}
	.st2{enable-background:new    ;}
	.st3{opacity:0.95;enable-background:new    ;}
</style>
<g id="XMLID_15_">
	<g id="XMLID_9_" class="st0">
		<path id="XMLID_12_" class="st1" d="M71.9,364.8c-16.2,0-31.7,6.4-43.2,17.9c-11.4,11.4-17.8,27-17.8,43.2
			c0,16.2,6.4,31.7,17.9,43.2C40.2,480.5,55.8,487,72,487s31.7-6.4,43.2-17.9c11.4-11.4,17.9-27,17.9-43.2c0-10.7-2.8-21.2-8.2-30.5
			c-5.4-9.3-13.1-17-22.3-22.3C93.2,367.6,82.7,364.8,71.9,364.8L71.9,364.8z M71.9,474.8c-13,0-25.4-5.1-34.5-14.3
			c-9.2-9.2-14.3-21.6-14.3-34.5s5.1-25.4,14.3-34.5c9.2-9.2,21.6-14.3,34.5-14.3s25.4,5.1,34.5,14.3c9.2,9.2,14.3,21.6,14.3,34.5
			c0,12.9-5.1,25.4-14.3,34.5C97.3,469.6,84.9,474.8,71.9,474.8z"/>
		<path id="XMLID_11_" class="st1" d="M91.8,403.5l-28,31.4l-11.7-13.2c-1-1.3-2.6-2.1-4.2-2.3c-1.7-0.1-3.3,0.4-4.6,1.5
			c-1.2,1.1-2,2.7-2.1,4.3c-0.1,1.7,0.5,3.3,1.7,4.5L59.2,448c1.2,1.3,2.8,2.1,4.6,2.1s3.4-0.8,4.6-2.1l32.5-36.5
			c1.3-1.6,1.7-3.9,1-5.9s-2.4-3.5-4.5-3.9C95.4,401.3,93.3,401.9,91.8,403.5L91.8,403.5z"/>
		<path id="XMLID_10_" class="st1" d="M114.7,369.4v-56.6c0-2.1-1.1-4.1-2.9-5.2s-4.1-1.2-5.9-0.2l-34,16.9l-33.8-16.9l0,0
			c-0.9-0.5-1.8-0.7-2.8-0.7c-1.1,0-2.3,0.3-3.2,0.9c-1.8,1.1-2.9,3.1-2.9,5.2v56.6c12.4-9,27.4-13.9,42.7-13.9
			S102.3,360.4,114.7,369.4L114.7,369.4z"/>
	</g>
	<g class="st2">
		<path class="st1" d="M191.9,329.1l15.5,41.3l15.5-41.3H235V383h-9.3v-17.8l0.9-23.8L210.7,383H204l-15.9-41.5l0.9,23.7V383h-9.3
			v-53.9H191.9z"/>
		<path class="st1" d="M262.9,383.7c-5.7,0-10.3-1.8-13.9-5.4c-3.5-3.6-5.3-8.4-5.3-14.3v-1.1c0-4,0.8-7.6,2.3-10.7s3.7-5.6,6.5-7.3
			c2.8-1.8,5.9-2.6,9.3-2.6c5.5,0,9.7,1.7,12.6,5.2c3,3.5,4.5,8.4,4.5,14.8v3.6h-26.2c0.3,3.3,1.4,5.9,3.3,7.8
			c1.9,1.9,4.4,2.9,7.3,2.9c4.1,0,7.5-1.7,10.1-5l4.8,4.6c-1.6,2.4-3.7,4.3-6.4,5.6C269.2,383.1,266.2,383.7,262.9,383.7z
			 M261.8,349.4c-2.5,0-4.5,0.9-6,2.6c-1.5,1.7-2.5,4.1-2.9,7.2H270v-0.7c-0.2-3-1-5.3-2.4-6.8S264.3,349.4,261.8,349.4z"/>
		<path class="st1" d="M306.9,351.2c-1.2-0.2-2.4-0.3-3.7-0.3c-4.1,0-6.9,1.6-8.3,4.7V383h-9v-40h8.6l0.2,4.5c2.2-3.5,5.2-5.2,9-5.2
			c1.3,0,2.3,0.2,3.2,0.5L306.9,351.2z"/>
		<path class="st1" d="M328.3,376.6c2.2,0,4.1-0.7,5.6-2c1.5-1.3,2.3-2.9,2.4-4.8h8.5c-0.1,2.5-0.9,4.8-2.3,7
			c-1.5,2.2-3.4,3.9-5.9,5.1c-2.5,1.3-5.2,1.9-8.1,1.9c-5.6,0-10-1.8-13.3-5.4c-3.3-3.6-4.9-8.6-4.9-15v-0.9c0-6.1,1.6-11,4.9-14.6
			c3.3-3.7,7.7-5.5,13.3-5.5c4.8,0,8.6,1.4,11.6,4.2c3,2.8,4.6,6.4,4.7,10.9h-8.5c-0.1-2.3-0.9-4.2-2.3-5.7
			c-1.5-1.5-3.3-2.2-5.6-2.2c-2.9,0-5.2,1.1-6.7,3.2c-1.6,2.1-2.4,5.3-2.4,9.6v1.4c0,4.3,0.8,7.6,2.4,9.7
			C323.1,375.5,325.3,376.6,328.3,376.6z"/>
		<path class="st1" d="M375.4,383c-0.4-0.8-0.7-2-1-3.7c-2.9,3-6.4,4.5-10.5,4.5c-4,0-7.3-1.1-9.8-3.4c-2.5-2.3-3.8-5.1-3.8-8.5
			c0-4.3,1.6-7.5,4.8-9.8c3.2-2.3,7.7-3.4,13.6-3.4h5.5v-2.6c0-2.1-0.6-3.7-1.7-5c-1.2-1.2-2.9-1.9-5.3-1.9c-2,0-3.7,0.5-5,1.5
			c-1.3,1-2,2.3-2,3.9h-9c0-2.2,0.7-4.3,2.2-6.2c1.5-1.9,3.4-3.4,5.9-4.5c2.5-1.1,5.3-1.6,8.4-1.6c4.7,0,8.4,1.2,11.2,3.5
			c2.8,2.4,4.2,5.7,4.3,9.9v18.1c0,3.6,0.5,6.5,1.5,8.6v0.6H375.4z M365.6,376.5c1.8,0,3.4-0.4,5-1.3c1.6-0.9,2.7-2,3.5-3.5v-7.5
			h-4.8c-3.3,0-5.8,0.6-7.5,1.7c-1.7,1.2-2.5,2.8-2.5,4.9c0,1.7,0.6,3.1,1.7,4.1S363.6,376.5,365.6,376.5z"/>
		<path class="st1" d="M390.8,362.7c0-6.2,1.4-11.1,4.3-14.9c2.9-3.7,6.7-5.6,11.5-5.6c4.2,0,7.7,1.5,10.3,4.4v-20.5h9V383h-8.1
			l-0.4-4.1c-2.7,3.3-6.3,4.9-10.8,4.9c-4.7,0-8.5-1.9-11.4-5.7C392.3,374.3,390.8,369.2,390.8,362.7z M399.8,363.5
			c0,4.1,0.8,7.2,2.4,9.5c1.6,2.3,3.8,3.4,6.7,3.4c3.7,0,6.4-1.6,8.1-4.9v-17.1c-1.7-3.2-4.3-4.8-8-4.8c-2.9,0-5.2,1.2-6.7,3.5
			C400.6,355.4,399.8,358.8,399.8,363.5z"/>
		<path class="st1" d="M433.6,362.6c0-3.9,0.8-7.5,2.3-10.6c1.6-3.1,3.7-5.6,6.6-7.3c2.8-1.7,6-2.5,9.7-2.5c5.4,0,9.8,1.7,13.2,5.2
			s5.2,8.1,5.5,13.8l0,2.1c0,3.9-0.8,7.5-2.3,10.6c-1.5,3.1-3.7,5.5-6.5,7.2s-6.1,2.6-9.8,2.6c-5.6,0-10.2-1.9-13.6-5.6
			c-3.4-3.8-5.1-8.8-5.1-15V362.6z M442.6,363.4c0,4.1,0.9,7.3,2.6,9.7c1.7,2.3,4.1,3.5,7.1,3.5s5.4-1.2,7.1-3.6
			c1.7-2.4,2.5-5.8,2.5-10.4c0-4-0.9-7.3-2.6-9.6s-4.1-3.6-7.1-3.6c-2.9,0-5.3,1.2-7,3.5C443.5,355.3,442.6,358.8,442.6,363.4z"/>
		<path class="st1" d="M488.7,375.5h24.5v7.5h-33.8v-53.9h9.4V375.5z"/>
		<path class="st1" d="M529.1,383h-9v-40h9V383z M527.4,326.4h10.3l-10.3,11.2l-7.2,0L527.4,326.4z"/>
		<path class="st1" d="M537.7,362.7c0-6.2,1.4-11.1,4.3-14.9c2.9-3.7,6.7-5.6,11.5-5.6c4.2,0,7.7,1.5,10.3,4.4v-20.5h9V383h-8.1
			l-0.4-4.1c-2.7,3.3-6.3,4.9-10.8,4.9c-4.7,0-8.5-1.9-11.4-5.7C539.1,374.3,537.7,369.2,537.7,362.7z M546.7,363.5
			c0,4.1,0.8,7.2,2.4,9.5c1.6,2.3,3.8,3.4,6.7,3.4c3.7,0,6.4-1.6,8.1-4.9v-17.1c-1.7-3.2-4.3-4.8-8-4.8c-2.9,0-5.2,1.2-6.7,3.5
			S546.7,358.8,546.7,363.5z"/>
		<path class="st1" d="M599.8,383.7c-5.7,0-10.3-1.8-13.9-5.4s-5.3-8.4-5.3-14.3v-1.1c0-4,0.8-7.6,2.3-10.7c1.5-3.1,3.7-5.6,6.5-7.3
			c2.8-1.8,5.9-2.6,9.3-2.6c5.5,0,9.7,1.7,12.6,5.2c3,3.5,4.5,8.4,4.5,14.8v3.6h-26.2c0.3,3.3,1.4,5.9,3.3,7.8
			c1.9,1.9,4.4,2.9,7.3,2.9c4.1,0,7.5-1.7,10.1-5l4.8,4.6c-1.6,2.4-3.7,4.3-6.4,5.6C606.1,383.1,603.1,383.7,599.8,383.7z
			 M598.7,349.4c-2.5,0-4.5,0.9-6,2.6s-2.5,4.1-2.9,7.2h17.1v-0.7c-0.2-3-1-5.3-2.4-6.8S601.2,349.4,598.7,349.4z"/>
		<path class="st1" d="M643.8,351.2c-1.2-0.2-2.4-0.3-3.7-0.3c-4.1,0-6.9,1.6-8.3,4.7V383h-9v-40h8.6l0.2,4.5c2.2-3.5,5.2-5.2,9-5.2
			c1.3,0,2.3,0.2,3.2,0.5L643.8,351.2z"/>
	</g>
	<g class="st2">
		<path class="st1" d="M191.3,436.7V455h-13v-53.9h21.5c4.1,0,7.8,0.8,10.9,2.3c3.2,1.5,5.6,3.7,7.4,6.5c1.7,2.8,2.6,6,2.6,9.5
			c0,5.3-1.9,9.5-5.6,12.6s-8.9,4.7-15.5,4.7H191.3z M191.3,426.7h8.5c2.5,0,4.4-0.6,5.8-1.9c1.3-1.3,2-3,2-5.3c0-2.5-0.7-4.5-2-6
			c-1.4-1.5-3.2-2.3-5.6-2.3h-8.7V426.7z"/>
		<path class="st1" d="M240.2,455h-12.5v-56.8h12.5V455z"/>
		<path class="st1" d="M270.5,455c-0.4-0.8-0.8-2-1.2-3.6c-2.3,2.9-5.5,4.3-9.6,4.3c-3.8,0-7-1.1-9.6-3.4c-2.6-2.3-4-5.2-4-8.6
			c0-4.3,1.6-7.6,4.8-9.8c3.2-2.2,7.9-3.3,14-3.3h3.8v-2.1c0-3.7-1.6-5.5-4.8-5.5c-3,0-4.4,1.5-4.4,4.4h-12.5c0-3.9,1.6-7,4.9-9.4
			c3.3-2.4,7.5-3.6,12.6-3.6s9.1,1.2,12.1,3.7c3,2.5,4.5,5.9,4.6,10.3v17.7c0,3.7,0.6,6.5,1.7,8.4v0.6H270.5z M262.7,446.9
			c1.6,0,2.8-0.3,3.9-1c1-0.7,1.8-1.4,2.2-2.3v-6.4h-3.6c-4.3,0-6.5,1.9-6.5,5.8c0,1.1,0.4,2.1,1.1,2.8
			C260.5,446.5,261.5,446.9,262.7,446.9z"/>
		<path class="st1" d="M302.7,405v10h6.6v8.7h-6.6v18.3c0,1.5,0.3,2.6,0.8,3.1c0.5,0.6,1.6,0.9,3.2,0.9c1.2,0,2.3-0.1,3.1-0.2v8.9
			c-2.2,0.7-4.6,1.1-7,1.1c-4.3,0-7.5-1-9.5-3c-2-2-3.1-5.1-3.1-9.2v-19.9h-5.1V415h5.1v-10H302.7z"/>
		<path class="st1" d="M314.1,404.6c0-1.8,0.6-3.2,1.9-4.4c1.3-1.1,2.9-1.7,5-1.7s3.7,0.6,5,1.7c1.3,1.1,1.9,2.6,1.9,4.4
			s-0.6,3.2-1.9,4.4c-1.3,1.1-2.9,1.7-5,1.7s-3.7-0.6-5-1.7C314.7,407.9,314.1,406.4,314.1,404.6z M327.3,455h-12.5v-40h12.5V455z"
			/>
		<path class="st1" d="M346.5,415l0.4,4.7c2.8-3.6,6.6-5.4,11.4-5.4c4.2,0,7.3,1.2,9.3,3.7c2.1,2.5,3.1,6.2,3.2,11.3V455h-12.5
			v-25.3c0-2-0.4-3.5-1.2-4.5c-0.8-0.9-2.3-1.4-4.4-1.4c-2.4,0-4.3,1-5.4,2.9V455h-12.5v-40H346.5z"/>
		<path class="st1" d="M401.6,450.7c-2.6,3.4-6.2,5.1-10.7,5.1c-4.4,0-7.7-1.3-10-3.8c-2.3-2.6-3.4-6.2-3.4-11V415H390v26
			c0,3.4,1.7,5.1,5,5.1c2.9,0,4.9-1,6.1-3.1V415h12.5v40H402L401.6,450.7z"/>
		<path class="st1" d="M432.3,415l0.4,4.7c2.8-3.6,6.6-5.4,11.4-5.4c5.1,0,8.5,2,10.3,6c2.7-4,6.6-6,11.8-6
			c8.1,0,12.3,4.9,12.5,14.7V455h-12.5v-25.3c0-2-0.3-3.5-1-4.5c-0.7-0.9-1.9-1.4-3.8-1.4c-2.5,0-4.3,1.1-5.5,3.3l0,0.5V455h-12.5
			v-25.2c0-2.1-0.3-3.6-1-4.6c-0.7-0.9-1.9-1.4-3.8-1.4c-2.4,0-4.2,1.1-5.5,3.3V455h-12.5v-40H432.3z"/>
	</g>
	<g class="st3">
		<path class="st1" d="M191.9,329.1l15.5,41.3l15.5-41.3H235V383h-9.3v-17.8l0.9-23.8L210.7,383H204l-15.9-41.5l0.9,23.7V383h-9.3
			v-53.9H191.9z"/>
		<path class="st1" d="M262.9,383.7c-5.7,0-10.3-1.8-13.9-5.4c-3.5-3.6-5.3-8.4-5.3-14.3v-1.1c0-4,0.8-7.6,2.3-10.7s3.7-5.6,6.5-7.3
			c2.8-1.8,5.9-2.6,9.3-2.6c5.5,0,9.7,1.7,12.6,5.2c3,3.5,4.5,8.4,4.5,14.8v3.6h-26.2c0.3,3.3,1.4,5.9,3.3,7.8
			c1.9,1.9,4.4,2.9,7.3,2.9c4.1,0,7.5-1.7,10.1-5l4.8,4.6c-1.6,2.4-3.7,4.3-6.4,5.6C269.2,383.1,266.2,383.7,262.9,383.7z
			 M261.8,349.4c-2.5,0-4.5,0.9-6,2.6c-1.5,1.7-2.5,4.1-2.9,7.2H270v-0.7c-0.2-3-1-5.3-2.4-6.8S264.3,349.4,261.8,349.4z"/>
		<path class="st1" d="M306.9,351.2c-1.2-0.2-2.4-0.3-3.7-0.3c-4.1,0-6.9,1.6-8.3,4.7V383h-9v-40h8.6l0.2,4.5c2.2-3.5,5.2-5.2,9-5.2
			c1.3,0,2.3,0.2,3.2,0.5L306.9,351.2z"/>
		<path class="st1" d="M328.3,376.6c2.2,0,4.1-0.7,5.6-2c1.5-1.3,2.3-2.9,2.4-4.8h8.5c-0.1,2.5-0.9,4.8-2.3,7
			c-1.5,2.2-3.4,3.9-5.9,5.1c-2.5,1.3-5.2,1.9-8.1,1.9c-5.6,0-10-1.8-13.3-5.4c-3.3-3.6-4.9-8.6-4.9-15v-0.9c0-6.1,1.6-11,4.9-14.6
			c3.3-3.7,7.7-5.5,13.3-5.5c4.8,0,8.6,1.4,11.6,4.2c3,2.8,4.6,6.4,4.7,10.9h-8.5c-0.1-2.3-0.9-4.2-2.3-5.7
			c-1.5-1.5-3.3-2.2-5.6-2.2c-2.9,0-5.2,1.1-6.7,3.2c-1.6,2.1-2.4,5.3-2.4,9.6v1.4c0,4.3,0.8,7.6,2.4,9.7
			C323.1,375.5,325.3,376.6,328.3,376.6z"/>
		<path class="st1" d="M375.4,383c-0.4-0.8-0.7-2-1-3.7c-2.9,3-6.4,4.5-10.5,4.5c-4,0-7.3-1.1-9.8-3.4c-2.5-2.3-3.8-5.1-3.8-8.5
			c0-4.3,1.6-7.5,4.8-9.8c3.2-2.3,7.7-3.4,13.6-3.4h5.5v-2.6c0-2.1-0.6-3.7-1.7-5c-1.2-1.2-2.9-1.9-5.3-1.9c-2,0-3.7,0.5-5,1.5
			c-1.3,1-2,2.3-2,3.9h-9c0-2.2,0.7-4.3,2.2-6.2c1.5-1.9,3.4-3.4,5.9-4.5c2.5-1.1,5.3-1.6,8.4-1.6c4.7,0,8.4,1.2,11.2,3.5
			c2.8,2.4,4.2,5.7,4.3,9.9v18.1c0,3.6,0.5,6.5,1.5,8.6v0.6H375.4z M365.6,376.5c1.8,0,3.4-0.4,5-1.3c1.6-0.9,2.7-2,3.5-3.5v-7.5
			h-4.8c-3.3,0-5.8,0.6-7.5,1.7c-1.7,1.2-2.5,2.8-2.5,4.9c0,1.7,0.6,3.1,1.7,4.1S363.6,376.5,365.6,376.5z"/>
		<path class="st1" d="M390.8,362.7c0-6.2,1.4-11.1,4.3-14.9c2.9-3.7,6.7-5.6,11.5-5.6c4.2,0,7.7,1.5,10.3,4.4v-20.5h9V383h-8.1
			l-0.4-4.1c-2.7,3.3-6.3,4.9-10.8,4.9c-4.7,0-8.5-1.9-11.4-5.7C392.3,374.3,390.8,369.2,390.8,362.7z M399.8,363.5
			c0,4.1,0.8,7.2,2.4,9.5c1.6,2.3,3.8,3.4,6.7,3.4c3.7,0,6.4-1.6,8.1-4.9v-17.1c-1.7-3.2-4.3-4.8-8-4.8c-2.9,0-5.2,1.2-6.7,3.5
			C400.6,355.4,399.8,358.8,399.8,363.5z"/>
		<path class="st1" d="M433.6,362.6c0-3.9,0.8-7.5,2.3-10.6c1.6-3.1,3.7-5.6,6.6-7.3c2.8-1.7,6-2.5,9.7-2.5c5.4,0,9.8,1.7,13.2,5.2
			s5.2,8.1,5.5,13.8l0,2.1c0,3.9-0.8,7.5-2.3,10.6c-1.5,3.1-3.7,5.5-6.5,7.2s-6.1,2.6-9.8,2.6c-5.6,0-10.2-1.9-13.6-5.6
			c-3.4-3.8-5.1-8.8-5.1-15V362.6z M442.6,363.4c0,4.1,0.9,7.3,2.6,9.7c1.7,2.3,4.1,3.5,7.1,3.5s5.4-1.2,7.1-3.6
			c1.7-2.4,2.5-5.8,2.5-10.4c0-4-0.9-7.3-2.6-9.6s-4.1-3.6-7.1-3.6c-2.9,0-5.3,1.2-7,3.5C443.5,355.3,442.6,358.8,442.6,363.4z"/>
		<path class="st1" d="M488.7,375.5h24.5v7.5h-33.8v-53.9h9.4V375.5z"/>
		<path class="st1" d="M529.1,383h-9v-40h9V383z M527.4,326.4h10.3l-10.3,11.2l-7.2,0L527.4,326.4z"/>
		<path class="st1" d="M537.7,362.7c0-6.2,1.4-11.1,4.3-14.9c2.9-3.7,6.7-5.6,11.5-5.6c4.2,0,7.7,1.5,10.3,4.4v-20.5h9V383h-8.1
			l-0.4-4.1c-2.7,3.3-6.3,4.9-10.8,4.9c-4.7,0-8.5-1.9-11.4-5.7C539.1,374.3,537.7,369.2,537.7,362.7z M546.7,363.5
			c0,4.1,0.8,7.2,2.4,9.5c1.6,2.3,3.8,3.4,6.7,3.4c3.7,0,6.4-1.6,8.1-4.9v-17.1c-1.7-3.2-4.3-4.8-8-4.8c-2.9,0-5.2,1.2-6.7,3.5
			S546.7,358.8,546.7,363.5z"/>
		<path class="st1" d="M599.8,383.7c-5.7,0-10.3-1.8-13.9-5.4s-5.3-8.4-5.3-14.3v-1.1c0-4,0.8-7.6,2.3-10.7c1.5-3.1,3.7-5.6,6.5-7.3
			c2.8-1.8,5.9-2.6,9.3-2.6c5.5,0,9.7,1.7,12.6,5.2c3,3.5,4.5,8.4,4.5,14.8v3.6h-26.2c0.3,3.3,1.4,5.9,3.3,7.8
			c1.9,1.9,4.4,2.9,7.3,2.9c4.1,0,7.5-1.7,10.1-5l4.8,4.6c-1.6,2.4-3.7,4.3-6.4,5.6C606.1,383.1,603.1,383.7,599.8,383.7z
			 M598.7,349.4c-2.5,0-4.5,0.9-6,2.6s-2.5,4.1-2.9,7.2h17.1v-0.7c-0.2-3-1-5.3-2.4-6.8S601.2,349.4,598.7,349.4z"/>
		<path class="st1" d="M643.8,351.2c-1.2-0.2-2.4-0.3-3.7-0.3c-4.1,0-6.9,1.6-8.3,4.7V383h-9v-40h8.6l0.2,4.5c2.2-3.5,5.2-5.2,9-5.2
			c1.3,0,2.3,0.2,3.2,0.5L643.8,351.2z"/>
	</g>
	<g class="st2">
		<path class="st1" d="M191.3,436.7V455h-13v-53.9h21.5c4.1,0,7.8,0.8,10.9,2.3c3.2,1.5,5.6,3.7,7.4,6.5c1.7,2.8,2.6,6,2.6,9.5
			c0,5.3-1.9,9.5-5.6,12.6s-8.9,4.7-15.5,4.7H191.3z M191.3,426.7h8.5c2.5,0,4.4-0.6,5.8-1.9c1.3-1.3,2-3,2-5.3c0-2.5-0.7-4.5-2-6
			c-1.4-1.5-3.2-2.3-5.6-2.3h-8.7V426.7z"/>
		<path class="st1" d="M240.2,455h-12.5v-56.8h12.5V455z"/>
		<path class="st1" d="M270.5,455c-0.4-0.8-0.8-2-1.2-3.6c-2.3,2.9-5.5,4.3-9.6,4.3c-3.8,0-7-1.1-9.6-3.4c-2.6-2.3-4-5.2-4-8.6
			c0-4.3,1.6-7.6,4.8-9.8c3.2-2.2,7.9-3.3,14-3.3h3.8v-2.1c0-3.7-1.6-5.5-4.8-5.5c-3,0-4.4,1.5-4.4,4.4h-12.5c0-3.9,1.6-7,4.9-9.4
			c3.3-2.4,7.5-3.6,12.6-3.6s9.1,1.2,12.1,3.7c3,2.5,4.5,5.9,4.6,10.3v17.7c0,3.7,0.6,6.5,1.7,8.4v0.6H270.5z M262.7,446.9
			c1.6,0,2.8-0.3,3.9-1c1-0.7,1.8-1.4,2.2-2.3v-6.4h-3.6c-4.3,0-6.5,1.9-6.5,5.8c0,1.1,0.4,2.1,1.1,2.8
			C260.5,446.5,261.5,446.9,262.7,446.9z"/>
		<path class="st1" d="M302.7,405v10h6.6v8.7h-6.6v18.3c0,1.5,0.3,2.6,0.8,3.1c0.5,0.6,1.6,0.9,3.2,0.9c1.2,0,2.3-0.1,3.1-0.2v8.9
			c-2.2,0.7-4.6,1.1-7,1.1c-4.3,0-7.5-1-9.5-3c-2-2-3.1-5.1-3.1-9.2v-19.9h-5.1V415h5.1v-10H302.7z"/>
		<path class="st1" d="M314.1,404.6c0-1.8,0.6-3.2,1.9-4.4c1.3-1.1,2.9-1.7,5-1.7s3.7,0.6,5,1.7c1.3,1.1,1.9,2.6,1.9,4.4
			s-0.6,3.2-1.9,4.4c-1.3,1.1-2.9,1.7-5,1.7s-3.7-0.6-5-1.7C314.7,407.9,314.1,406.4,314.1,404.6z M327.3,455h-12.5v-40h12.5V455z"
			/>
		<path class="st1" d="M346.5,415l0.4,4.7c2.8-3.6,6.6-5.4,11.4-5.4c4.2,0,7.3,1.2,9.3,3.7c2.1,2.5,3.1,6.2,3.2,11.3V455h-12.5
			v-25.3c0-2-0.4-3.5-1.2-4.5c-0.8-0.9-2.3-1.4-4.4-1.4c-2.4,0-4.3,1-5.4,2.9V455h-12.5v-40H346.5z"/>
		<path class="st1" d="M401.6,450.7c-2.6,3.4-6.2,5.1-10.7,5.1c-4.4,0-7.7-1.3-10-3.8c-2.3-2.6-3.4-6.2-3.4-11V415H390v26
			c0,3.4,1.7,5.1,5,5.1c2.9,0,4.9-1,6.1-3.1V415h12.5v40H402L401.6,450.7z"/>
		<path class="st1" d="M432.3,415l0.4,4.7c2.8-3.6,6.6-5.4,11.4-5.4c5.1,0,8.5,2,10.3,6c2.7-4,6.6-6,11.8-6
			c8.1,0,12.3,4.9,12.5,14.7V455h-12.5v-25.3c0-2-0.3-3.5-1-4.5c-0.7-0.9-1.9-1.4-3.8-1.4c-2.5,0-4.3,1.1-5.5,3.3l0,0.5V455h-12.5
			v-25.2c0-2.1-0.3-3.6-1-4.6c-0.7-0.9-1.9-1.4-3.8-1.4c-2.4,0-4.2,1.1-5.5,3.3V455h-12.5v-40H432.3z"/>
	</g>
</g>
</svg>
