<?xml version="1.0" encoding="utf-8"?>
<!-- Generator: Adobe Illustrator 19.0.0, SVG Export Plug-In . SVG Version: 6.00 Build 0)  -->
<svg version="1.1" id="Camada_1" xmlns="http://www.w3.org/2000/svg" xmlns:xlink="http://www.w3.org/1999/xlink" x="0px" y="0px"
	 viewBox="0 0 633.9 180.2" style="enable-background:new 0 0 633.9 180.2;" xml:space="preserve">
<style type="text/css">
	.st0{fill:#030104;}
	.st1{font-family:'Roboto-Medium';}
	.st2{font-size:75.7901px;}
	.st3{font-family:'Roboto-Black';}
</style>
<g id="XMLID_15_">
	<g id="XMLID_9_">
		<path id="XMLID_12_" class="st0" d="M61,58.1c-16.2,0-31.7,6.4-43.2,17.9C6.4,87.4,0,103,0,119.2s6.4,31.7,17.9,43.2
			c11.4,11.4,27,17.9,43.2,17.9s31.7-6.4,43.2-17.9c11.4-11.4,17.9-27,17.9-43.2c0-10.7-2.8-21.2-8.2-30.5
			c-5.4-9.3-13.1-17-22.3-22.3C82.3,60.9,71.8,58.1,61,58.1L61,58.1z M61,168c-13,0-25.4-5.1-34.5-14.3
			c-9.2-9.2-14.3-21.6-14.3-34.5s5.1-25.4,14.3-34.5c9.2-9.2,21.6-14.3,34.5-14.3s25.4,5.1,34.5,14.3c9.2,9.2,14.3,21.6,14.3,34.5
			s-5.1,25.4-14.3,34.5C86.4,162.9,74,168,61,168z"/>
		<path id="XMLID_11_" class="st0" d="M80.9,96.8l-28,31.4l-11.7-13.2c-1-1.3-2.6-2.1-4.2-2.3c-1.7-0.1-3.3,0.4-4.6,1.5
			c-1.2,1.1-2,2.7-2.1,4.3c-0.1,1.7,0.5,3.3,1.7,4.5l16.3,18.3c1.2,1.3,2.8,2.1,4.6,2.1c1.8,0,3.4-0.8,4.6-2.1L90,104.8
			c1.3-1.6,1.7-3.9,1-5.9c-0.7-2-2.4-3.5-4.5-3.9C84.5,94.6,82.4,95.2,80.9,96.8L80.9,96.8z"/>
		<path id="XMLID_10_" class="st0" d="M103.8,62.7V6.1c0-2.1-1.1-4.1-2.9-5.2c-1.8-1.1-4.1-1.2-5.9-0.2L61,17.6L27.2,0.7v0
			C26.3,0.2,25.4,0,24.4,0c-1.1,0-2.3,0.3-3.2,0.9C19.4,2,18.3,4,18.3,6.1v56.6c12.4-9,27.4-13.9,42.7-13.9S91.4,53.7,103.8,62.7
			L103.8,62.7z"/>
	</g>
	<text id="XMLID_1_" transform="matrix(1 0 0 1 163.3176 76.256)"><tspan x="0" y="0" class="st1 st2">MercadoLíder</tspan><tspan x="0" y="72" class="st3 st2">Platinum</tspan></text>
	<text id="XMLID_16_" transform="matrix(1 0 0 1 163.3176 76.256)"><tspan x="0" y="0" class="st1 st2">MercadoLíder</tspan><tspan x="0" y="72" class="st3 st2">Platinum</tspan></text>
</g>
</svg>
