<?xml version="1.0" encoding="utf-8"?>
<!-- Generator: Adobe Illustrator 19.0.0, SVG Export Plug-In . SVG Version: 6.00 Build 0)  -->
<svg version="1.1" id="Camada_1" xmlns="http://www.w3.org/2000/svg" xmlns:xlink="http://www.w3.org/1999/xlink" x="0px" y="0px"
	 viewBox="0 0 81 80" style="enable-background:new 0 0 81 80;" xml:space="preserve">
<style type="text/css">
	.st0{fill:#F6F5F5;}
	.st1{fill:#FFFFFF;}
	.st2{fill:#C64E45;}
</style>
<g id="XMLID_22_">
	<path id="XMLID_34_" class="st0" d="M81,70c0,5.5-4.5,10-10,10H10C4.5,80,0,75.5,0,70V10C0,4.5,4.5,0,10,0h61c5.5,0,10,4.5,10,10
		V70z"/>
	<path id="XMLID_31_" class="st1" d="M71,0H10C4.5,0,0,4.5,0,10v60c0,5.5,4.5,10,10,10h61c5.5,0,10-4.5,10-10V10C81,4.5,76.5,0,71,0
		z M71,2c4.4,0,8,3.6,8,8v60c0,4.4-3.6,8-8,8H10c-4.4,0-8-3.6-8-8V10c0-4.4,3.6-8,8-8H71z"/>
	<path id="XMLID_1_" class="st2" d="M50.9,54.4c0.6-4.9-2.6-8.1-11-10.7c-4.1-1.4-6-3.2-6-5.7c0.2-2.8,2.8-4.8,6.2-4.8
		c2.4,0,5,0.6,7.6,2.3c0.3,0.2,0.5,0.2,0.7-0.1c0.2-0.4,0.8-1.3,1-1.6c0.1-0.2,0.2-0.5-0.2-0.7c-0.5-0.4-1.9-1.1-2.6-1.4
		c-2-0.8-4.2-1.4-6.6-1.3c-5,0-9,3.2-9.3,7.4c-0.2,3,1.3,5.5,4.6,7.4c0.7,0.4,4.4,1.9,5.9,2.3c4.7,1.4,7.1,4,6.5,7.1
		c-0.5,2.7-3.4,4.5-7.4,4.6c-3.2-0.1-6-1.4-8.2-3.1c-0.1,0-0.3-0.3-0.4-0.3c-0.3-0.2-0.6-0.2-0.8,0.1c-0.1,0.2-1,1.4-1.2,1.8
		c-0.2,0.3-0.1,0.4,0.1,0.6c0.9,0.8,2.2,1.6,3,2c2.3,1.2,4.8,1.8,7.4,1.9c1.7,0.1,3.9-0.2,5.5-0.9C48.6,59.9,50.5,57.4,50.9,54.4z
		 M40.5,11.1c-5.4,0-9.9,5.1-10.1,11.5h20.2C50.4,16.2,45.9,11.1,40.5,11.1z M61.2,70.2l-0.2,0l-41.6,0h0c-2.8-0.1-4.9-2.4-5.2-5.2
		l0-0.5l-1.9-40.6l0,0c0,0,0-0.1,0-0.1c0-0.7,0.5-1.2,1.2-1.2l13.1,0C26.9,14.1,33,7.4,40.5,7.4c7.5,0,13.6,6.7,13.9,15.2h13.1h0
		c0.7,0,1.2,0.5,1.2,1.2c0,0,0,0,0,0.1v0l-2,40.8l0,0.3C66.4,67.8,64,70.1,61.2,70.2z"/>
</g>
</svg>
